<svg width="375" height="354" viewBox="0 0 375 354" fill="none" xmlns="http://www.w3.org/2000/svg">
<path d="M152.043 155.098C152.043 167.344 145.656 187.383 130.539 187.383C115.422 187.383 109.035 167.344 109.035 155.098C109.035 142.852 115.422 122.813 130.539 122.813C145.656 122.813 152.043 142.852 152.043 155.098ZM324.25 125.508C324.25 144.199 322.375 164.004 313.996 181.172C291.789 226.055 230.734 225 187.023 225C142.609 225 77.9219 226.582 54.8359 181.172C46.2813 164.18 43 144.199 43 125.508C43 100.957 51.1445 77.7539 67.3164 58.9453C64.2695 49.6875 62.8047 39.9609 62.8047 30.3516C62.8047 17.7539 65.6758 11.4258 71.3594 0C97.9023 0 114.895 5.27344 135.109 21.0938C152.102 17.0508 169.562 15.2344 187.082 15.2344C202.902 15.2344 218.84 16.9336 234.191 20.625C254.113 4.98047 271.105 0 297.355 0C303.098 11.4258 305.91 17.7539 305.91 30.3516C305.91 39.9609 304.387 49.5117 301.398 58.5938C317.512 77.5781 324.25 100.957 324.25 125.508ZM286.574 155.098C286.574 129.375 270.93 106.699 243.508 106.699C232.434 106.699 221.828 108.691 210.695 110.215C201.965 111.563 193.234 112.09 184.27 112.09C175.363 112.09 166.633 111.563 157.844 110.215C146.887 108.691 136.164 106.699 125.031 106.699C97.6094 106.699 81.9648 129.375 81.9648 155.098C81.9648 206.543 129.074 214.453 170.09 214.453H198.332C239.523 214.453 286.574 206.602 286.574 155.098ZM238.176 122.813C223.059 122.813 216.672 142.852 216.672 155.098C216.672 167.344 223.059 187.383 238.176 187.383C253.293 187.383 259.68 167.344 259.68 155.098C259.68 142.852 253.293 122.813 238.176 122.813Z" fill="black"/>
<path d="M211 295.5C212.333 271.5 213 258.167 213 255.5C214.205 244.607 216.294 252.914 230.5 266.5C244.706 280.086 294.232 312.781 265 262.5C255 256.5 241.5 244 234.5 237C230.315 230.884 225.807 228.197 223.5 221.5C193.597 219.341 176.825 217.401 147 223.5C139.667 228.833 134.333 237.5 131 249.5C119 253.5 111 255.5 107 255.5C97 254.833 85.8333 247.333 73.5 233C61.1667 218.667 48.6667 213.167 36 216.5C37.3333 220.5 40.3333 224.167 45 227.5C49.6667 230.833 52.6667 233.167 54 234.5C56.6667 237.833 59.3333 242.5 62 248.5C64.6667 254.5 66.3333 258.5 67 260.5C78.3333 279.167 99.3333 285.5 130 279.5C129.333 283.5 129.5 292 130.5 305C131.5 318 130.667 324.833 128 325.5C126.667 328.167 124 330.833 120 333.5C116 336.167 113.667 339.167 113 342.5C119.667 345.167 126.833 345.333 134.5 343C142.167 340.667 147.333 336.5 150 330.5C152.667 321.167 153.333 307.333 152 289C150.667 270.667 153 259.5 159 255.5C157.667 262.833 157.667 276.667 159 297C160.333 317.333 159.333 330.167 156 335.5C155.333 336.833 153.667 339.333 151 343C148.333 346.667 147.333 350.167 148 353.5C154 354.167 159 353.833 163 352.5C167 351.167 170.333 348.667 173 345C175.667 341.333 177.667 337.667 179 334C180.333 330.333 181.333 325.167 182 318.5C182.667 311.833 183 306.333 183 302C183 297.667 182.833 291.667 182.5 284C182.167 276.333 182 270.833 182 267.5C182 257.5 183.333 252.167 186 251.5C187.333 258.833 187.833 273 187.5 294C187.167 315 189.167 330.5 193.5 340.5C197.833 350.5 207.333 354.833 222 353.5C222.667 350.167 221.667 346.667 219 343C216.333 339.333 214.667 336.5 214 334.5C210.667 332.5 209.667 319.5 211 295.5Z" fill="black"/>
<path d="M269 258C269.11 257.518 267.645 259.239 264.5 263L290 273C290.936 274.858 292.493 271.317 293.5 263C292.912 241.861 287.393 228.668 266 204L255.5 199C254.524 187.911 251.708 192.76 244 202.5C242.986 202.576 248.694 215.577 269 258Z" fill="black"/>
<ellipse cx="276.779" cy="270.029" rx="21.7912" ry="13.8681" transform="rotate(123.929 276.779 270.029)" fill="black"/>
<ellipse cx="265.895" cy="195.972" rx="12.4816" ry="7.5" transform="rotate(9.9086 265.895 195.972)" fill="black"/>
<ellipse cx="255.104" cy="198.522" rx="12.4816" ry="7.5" transform="rotate(-32.1054 255.104 198.522)" fill="black"/>
<circle cx="238.151" cy="155.856" r="36" transform="rotate(6.58884 238.151 155.856)" stroke="#878C8D" stroke-width="4"/>
<path d="M255.19 189.379L271 228.5" stroke="#878C8D" stroke-width="4" stroke-linecap="round"/>
<ellipse cx="266.249" cy="199.849" rx="12.4816" ry="7.5" transform="rotate(-10.9943 266.249 199.849)" fill="black"/>
<path d="M291.778 154.384C316.458 151.778 345.512 150.209 372 160.892" stroke="black" stroke-width="4.6" stroke-linecap="round"/>
<path d="M291.057 161.832C315.826 162.659 344.912 165.121 370.849 179.418" stroke="black" stroke-width="4.6" stroke-linecap="round"/>
<path d="M3 162.676C24.5628 155.939 50.4694 149.457 78.3124 155.274" stroke="black" stroke-width="4.6" stroke-linecap="round"/>
<path d="M4.76343 184.085C23.5782 174.132 46.9763 163.603 78.4098 163.61" stroke="black" stroke-width="4.6" stroke-linecap="round"/>
</svg>
