<svg width="375" height="357" viewBox="0 0 375 357" fill="none" xmlns="http://www.w3.org/2000/svg">
<path d="M152.043 155.098C152.043 167.344 145.656 187.383 130.539 187.383C115.422 187.383 109.035 167.344 109.035 155.098C109.035 142.852 115.422 122.813 130.539 122.813C145.656 122.813 152.043 142.852 152.043 155.098ZM324.25 125.508C324.25 144.199 322.375 164.004 313.996 181.172C291.789 226.055 230.734 225 187.023 225C142.609 225 77.9219 226.582 54.8359 181.172C46.2813 164.18 43 144.199 43 125.508C43 100.957 51.1445 77.7539 67.3164 58.9453C64.2695 49.6875 62.8047 39.9609 62.8047 30.3516C62.8047 17.7539 65.6758 11.4258 71.3594 0C97.9023 0 114.895 5.27344 135.109 21.0938C152.102 17.0508 169.562 15.2344 187.082 15.2344C202.902 15.2344 218.84 16.9336 234.191 20.625C254.113 4.98047 271.105 0 297.355 0C303.098 11.4258 305.91 17.7539 305.91 30.3516C305.91 39.9609 304.387 49.5117 301.398 58.5938C317.512 77.5781 324.25 100.957 324.25 125.508ZM286.574 155.098C286.574 129.375 270.93 106.699 243.508 106.699C232.434 106.699 221.828 108.691 210.695 110.215C201.965 111.563 193.234 112.09 184.27 112.09C175.363 112.09 166.633 111.563 157.844 110.215C146.887 108.691 136.164 106.699 125.031 106.699C97.6094 106.699 81.9648 129.375 81.9648 155.098C81.9648 206.543 129.074 214.453 170.09 214.453H198.332C239.523 214.453 286.574 206.602 286.574 155.098ZM238.176 122.813C223.059 122.813 216.672 142.852 216.672 155.098C216.672 167.344 223.059 187.383 238.176 187.383C253.293 187.383 259.68 167.344 259.68 155.098C259.68 142.852 253.293 122.813 238.176 122.813Z" fill="black"/>
<path d="M302 230.853C290.667 249.483 269.667 255.803 239 249.815L238 219.875C250 223.867 258 225.863 262 225.863C272 225.198 283.167 217.713 295.5 203.408C307.833 189.104 320.333 183.615 333 186.942C331.667 190.933 328.667 194.593 324 197.919L315 204.905C312.333 208.232 309.667 212.889 307 218.877L302 230.853Z" fill="black" stroke="black"/>
<path d="M77 237.853C88.3333 256.483 109.333 262.803 140 256.815L141 226.875C129 230.867 121 232.863 117 232.863C107 232.198 95.8333 224.713 83.5 210.408C71.1667 196.104 58.6667 190.615 46 193.942C47.3333 197.933 50.3333 201.593 55 204.919L64 211.905C66.6667 215.232 69.3333 219.889 72 225.877L77 237.853Z" fill="black" stroke="black"/>
<path d="M232 298.5C233.333 274.5 234 261.167 234 258.5C235.506 246.766 240 251.5 248 251.5L252.5 243L240 223L193 217L138.138 221L131.138 231L124.5 258.5C124.133 261.669 140 254 145 258.5C150 263 148.882 260.813 149 276C148.333 280 150.5 295 151.5 308C152.5 321 153.167 330.833 150.5 331.5C149.167 334.167 146.5 336.833 142.5 339.5C138.5 342.167 134.667 347.167 134 350.5C140.667 353.167 148.333 353.833 156 351.5C163.667 349.167 166.333 343.5 169 337.5C171.667 328.167 174.333 310.333 173 292C171.667 273.667 174 262.5 180 258.5C178.667 265.833 178.667 279.667 180 300C181.333 320.333 180.333 333.167 177 338.5C176.333 339.833 174.667 342.333 172 346C169.333 349.667 168.333 353.167 169 356.5C175 357.167 180 356.833 184 355.5C188 354.167 194.833 352.167 197.5 348.5C200.167 344.833 198.667 340.667 200 337C201.333 333.333 202.333 328.167 203 321.5C203.667 314.833 204 309.333 204 305C204 300.667 203.833 294.667 203.5 287C203.167 279.333 203 273.833 203 270.5C203 260.5 204.333 255.167 207 254.5C208.333 261.833 208.833 276 208.5 297C208.167 318 210.167 333.5 214.5 343.5C218.833 353.5 228.333 357.833 243 356.5C243.667 353.167 242.667 349.667 240 346C237.333 342.333 235.667 339.5 235 337.5C231.667 335.5 230.667 322.5 232 298.5Z" fill="black"/>
<path d="M291.778 154.384C316.458 151.778 345.512 150.209 372 160.892" stroke="black" stroke-width="4.6" stroke-linecap="round"/>
<path d="M291.057 161.832C315.826 162.659 344.912 165.121 370.849 179.418" stroke="black" stroke-width="4.6" stroke-linecap="round"/>
<path d="M3 162.676C24.5628 155.939 50.4694 149.457 78.3124 155.274" stroke="black" stroke-width="4.6" stroke-linecap="round"/>
<path d="M4.76343 184.085C23.5782 174.132 46.9763 163.603 78.4098 163.61" stroke="black" stroke-width="4.6" stroke-linecap="round"/>
<path d="M261 174C254.624 186.499 249.173 190.911 232 188.5M107 174C116.514 191.818 124.604 191.265 139.5 188.5" stroke="black" stroke-width="2"/>
<path d="M268 129C261.045 116.465 255.098 112.041 236.364 114.459M100 129C110.379 111.132 119.205 111.686 135.455 114.459" stroke="black" stroke-width="2"/>
</svg>
