<svg width="512" height="1024" viewBox="0 0 512 1024" fill="none" xmlns="http://www.w3.org/2000/svg">
<path d="M-0.333374 148C-56.364 148 -111.846 159.036 -163.612 180.478C-215.377 201.92 -262.413 233.348 -302.032 272.968C-382.048 352.983 -427 461.508 -427 574.667C-427 763.253 -304.547 923.253 -135.16 980C-113.827 983.413 -107 970.187 -107 958.667V886.56C-225.187 912.16 -250.36 829.387 -250.36 829.387C-269.987 779.893 -297.72 766.667 -297.72 766.667C-336.547 740.213 -294.733 741.067 -294.733 741.067C-252.067 744.053 -229.453 785.013 -229.453 785.013C-192.333 849.867 -129.613 830.667 -105.293 820.427C-101.453 792.693 -90.36 773.92 -78.4134 763.253C-173.133 752.587 -272.547 715.893 -272.547 553.333C-272.547 505.973 -256.333 468 -228.6 437.707C-232.867 427.04 -247.8 382.667 -224.333 325.067C-224.333 325.067 -188.493 313.547 -107 368.587C-73.2934 359.2 -36.6 354.507 -0.333374 354.507C35.9333 354.507 72.6266 359.2 106.333 368.587C187.827 313.547 223.667 325.067 223.667 325.067C247.133 382.667 232.2 427.04 227.933 437.707C255.667 468 271.88 505.973 271.88 553.333C271.88 716.32 172.04 752.16 76.8933 762.827C92.2533 776.053 106.333 802.08 106.333 841.76V958.667C106.333 970.187 113.16 983.84 134.92 980C304.307 922.827 426.333 763.253 426.333 574.667C426.333 518.636 415.297 463.154 393.855 411.388C372.413 359.623 340.985 312.587 301.366 272.968C261.746 233.348 214.711 201.92 162.945 180.478C111.179 159.036 55.6973 148 -0.333374 148Z" fill="#181B20"/>
<path d="M253.039 596.156C305.787 592.143 367.883 589.725 424.494 606.178" stroke="#111317" stroke-width="4.6" stroke-linecap="round"/>
<path d="M252.115 606.73C304.984 608.56 366.967 613.006 421.418 635.604" stroke="#111317" stroke-width="4.6" stroke-linecap="round"/>
</svg>
